<svg width="110" height="40" viewBox="0 0 110 40" fill="none" xmlns="http://www.w3.org/2000/svg">
<path d="M35.9204 39.6469C34.6658 39.6469 33.5384 39.3938 32.5384 38.8876C31.5565 38.3633 30.7837 37.6402 30.2201 36.7182C29.6746 35.7961 29.4018 34.7204 29.4018 33.4911V25.4912H31.9383V33.464C31.9383 34.2956 32.1202 35.0187 32.4838 35.6334C32.8475 36.23 33.3293 36.691 33.9294 37.0165C34.5476 37.3419 35.2022 37.5046 35.8931 37.5046C36.6023 37.5046 37.2569 37.3419 37.8569 37.0165C38.4751 36.691 38.9661 36.23 39.3297 35.6334C39.7116 35.0187 39.9025 34.2956 39.9025 33.464V25.4912H42.439V33.4911C42.439 34.7204 42.1572 35.7961 41.5935 36.7182C41.0298 37.6402 40.2571 38.3633 39.2752 38.8876C38.2933 39.3938 37.175 39.6469 35.9204 39.6469Z" fill="url(#paint0_radial_3845_9773)"/>
<path d="M35.9204 39.6469C34.6658 39.6469 33.5384 39.3938 32.5384 38.8876C31.5565 38.3633 30.7837 37.6402 30.2201 36.7182C29.6746 35.7961 29.4018 34.7204 29.4018 33.4911V25.4912H31.9383V33.464C31.9383 34.2956 32.1202 35.0187 32.4838 35.6334C32.8475 36.23 33.3293 36.691 33.9294 37.0165C34.5476 37.3419 35.2022 37.5046 35.8931 37.5046C36.6023 37.5046 37.2569 37.3419 37.8569 37.0165C38.4751 36.691 38.9661 36.23 39.3297 35.6334C39.7116 35.0187 39.9025 34.2956 39.9025 33.464V25.4912H42.439V33.4911C42.439 34.7204 42.1572 35.7961 41.5935 36.7182C41.0298 37.6402 40.2571 38.3633 39.2752 38.8876C38.2933 39.3938 37.175 39.6469 35.9204 39.6469Z" fill="url(#paint1_linear_3845_9773)"/>
<path d="M46.4217 39.3215V30.9962C46.4217 29.9295 46.6672 28.9533 47.1581 28.0674C47.6491 27.1816 48.3582 26.4765 49.2855 25.9522C50.2129 25.4279 51.3311 25.1658 52.6403 25.1658C53.2767 25.1658 53.9131 25.2562 54.5495 25.437C55.1859 25.5997 55.7769 25.8889 56.3224 26.3047C56.8679 26.7025 57.3042 27.2448 57.6315 27.9318H57.6588C58.0225 27.2448 58.477 26.7025 59.0225 26.3047C59.568 25.8889 60.159 25.5997 60.7954 25.437C61.4318 25.2562 62.0773 25.1658 62.7319 25.1658C64.0229 25.1658 65.132 25.4279 66.0593 25.9522C66.9867 26.4765 67.6958 27.1816 68.1868 28.0674C68.6777 28.9533 68.9232 29.9295 68.9232 30.9962V39.3215H66.4139V30.9962C66.4139 30.3092 66.2503 29.6855 65.923 29.125C65.5957 28.5646 65.1502 28.1217 64.5865 27.7962C64.041 27.4708 63.4137 27.3081 62.7046 27.3081C62.0136 27.3081 61.3772 27.4799 60.7954 27.8234C60.2135 28.1488 59.7499 28.5917 59.4044 29.1522C59.0771 29.6945 58.9134 30.3092 58.9134 30.9962V39.3215H56.4042V30.9962C56.4042 30.3092 56.2314 29.6945 55.886 29.1522C55.5587 28.5917 55.1041 28.1488 54.5222 27.8234C53.9586 27.4799 53.3222 27.3081 52.613 27.3081C51.9221 27.3081 51.2948 27.4708 50.7311 27.7962C50.1856 28.1217 49.7492 28.5646 49.4219 29.125C49.0946 29.6855 48.931 30.3092 48.931 30.9962V39.3215H46.4217Z" fill="url(#paint2_radial_3845_9773)"/>
<path d="M46.4217 39.3215V30.9962C46.4217 29.9295 46.6672 28.9533 47.1581 28.0674C47.6491 27.1816 48.3582 26.4765 49.2855 25.9522C50.2129 25.4279 51.3311 25.1658 52.6403 25.1658C53.2767 25.1658 53.9131 25.2562 54.5495 25.437C55.1859 25.5997 55.7769 25.8889 56.3224 26.3047C56.8679 26.7025 57.3042 27.2448 57.6315 27.9318H57.6588C58.0225 27.2448 58.477 26.7025 59.0225 26.3047C59.568 25.8889 60.159 25.5997 60.7954 25.437C61.4318 25.2562 62.0773 25.1658 62.7319 25.1658C64.0229 25.1658 65.132 25.4279 66.0593 25.9522C66.9867 26.4765 67.6958 27.1816 68.1868 28.0674C68.6777 28.9533 68.9232 29.9295 68.9232 30.9962V39.3215H66.4139V30.9962C66.4139 30.3092 66.2503 29.6855 65.923 29.125C65.5957 28.5646 65.1502 28.1217 64.5865 27.7962C64.041 27.4708 63.4137 27.3081 62.7046 27.3081C62.0136 27.3081 61.3772 27.4799 60.7954 27.8234C60.2135 28.1488 59.7499 28.5917 59.4044 29.1522C59.0771 29.6945 58.9134 30.3092 58.9134 30.9962V39.3215H56.4042V30.9962C56.4042 30.3092 56.2314 29.6945 55.886 29.1522C55.5587 28.5917 55.1041 28.1488 54.5222 27.8234C53.9586 27.4799 53.3222 27.3081 52.613 27.3081C51.9221 27.3081 51.2948 27.4708 50.7311 27.7962C50.1856 28.1217 49.7492 28.5646 49.4219 29.125C49.0946 29.6855 48.931 30.3092 48.931 30.9962V39.3215H46.4217Z" fill="url(#paint3_linear_3845_9773)"/>
<path d="M72.8971 39.3215V25.4912H75.4337V39.3215H72.8971ZM74.179 23.2946C73.7245 23.2946 73.3244 23.1319 72.979 22.8065C72.6517 22.463 72.488 22.0652 72.488 21.6133C72.488 21.1613 72.6517 20.7726 72.979 20.4472C73.3244 20.1037 73.7245 19.9319 74.179 19.9319C74.6336 19.9319 75.0245 20.1037 75.3518 20.4472C75.6973 20.7726 75.8701 21.1613 75.8701 21.6133C75.8701 22.0652 75.6973 22.463 75.3518 22.8065C75.0245 23.1319 74.6336 23.2946 74.179 23.2946Z" fill="url(#paint4_radial_3845_9773)"/>
<path d="M72.8971 39.3215V25.4912H75.4337V39.3215H72.8971ZM74.179 23.2946C73.7245 23.2946 73.3244 23.1319 72.979 22.8065C72.6517 22.463 72.488 22.0652 72.488 21.6133C72.488 21.1613 72.6517 20.7726 72.979 20.4472C73.3244 20.1037 73.7245 19.9319 74.179 19.9319C74.6336 19.9319 75.0245 20.1037 75.3518 20.4472C75.6973 20.7726 75.8701 21.1613 75.8701 21.6133C75.8701 22.0652 75.6973 22.463 75.3518 22.8065C75.0245 23.1319 74.6336 23.2946 74.179 23.2946Z" fill="url(#paint5_linear_3845_9773)"/>
<path d="M79.3961 39.3215V31.3216C79.3961 30.0923 79.6689 29.0166 80.2144 28.0945C80.778 27.1725 81.5508 26.4584 82.5327 25.9522C83.5146 25.4279 84.6328 25.1658 85.8875 25.1658C87.1603 25.1658 88.2785 25.4279 89.2422 25.9522C90.2241 26.4584 90.9878 27.1725 91.5333 28.0945C92.0969 29.0166 92.3788 30.0923 92.3788 31.3216V39.3215H89.8695V31.3487C89.8695 30.5171 89.6786 29.803 89.2968 29.2064C88.9331 28.5917 88.4422 28.1217 87.824 27.7962C87.2239 27.4708 86.5784 27.3081 85.8875 27.3081C85.1965 27.3081 84.5419 27.4708 83.9237 27.7962C83.3237 28.1217 82.8327 28.5917 82.4509 29.2064C82.0872 29.803 81.9054 30.5171 81.9054 31.3487V39.3215H79.3961Z" fill="url(#paint6_radial_3845_9773)"/>
<path d="M79.3961 39.3215V31.3216C79.3961 30.0923 79.6689 29.0166 80.2144 28.0945C80.778 27.1725 81.5508 26.4584 82.5327 25.9522C83.5146 25.4279 84.6328 25.1658 85.8875 25.1658C87.1603 25.1658 88.2785 25.4279 89.2422 25.9522C90.2241 26.4584 90.9878 27.1725 91.5333 28.0945C92.0969 29.0166 92.3788 30.0923 92.3788 31.3216V39.3215H89.8695V31.3487C89.8695 30.5171 89.6786 29.803 89.2968 29.2064C88.9331 28.5917 88.4422 28.1217 87.824 27.7962C87.2239 27.4708 86.5784 27.3081 85.8875 27.3081C85.1965 27.3081 84.5419 27.4708 83.9237 27.7962C83.3237 28.1217 82.8327 28.5917 82.4509 29.2064C82.0872 29.803 81.9054 30.5171 81.9054 31.3487V39.3215H79.3961Z" fill="url(#paint7_linear_3845_9773)"/>
<path d="M102.145 39.6469C100.799 39.6469 99.6357 39.3306 98.6538 38.6978C97.6719 38.047 96.9174 37.1701 96.39 36.0673C95.8627 34.9645 95.5991 33.7442 95.5991 32.4063C95.5991 31.0504 95.89 29.8301 96.4719 28.7454C97.0537 27.6426 97.8901 26.7748 98.9811 26.142C100.072 25.4912 101.381 25.1658 102.909 25.1658C104.381 25.1658 105.645 25.4821 106.7 26.1149C107.754 26.7477 108.564 27.6064 109.127 28.6911C109.709 29.7759 110 30.9872 110 32.325V39.3215H107.463V36.5012H107.409C107.136 37.0255 106.763 37.5317 106.291 38.0198C105.836 38.4899 105.263 38.8786 104.572 39.1859C103.881 39.4933 103.072 39.6469 102.145 39.6469ZM102.8 37.5046C103.709 37.5046 104.509 37.2876 105.2 36.8537C105.909 36.4018 106.454 35.7871 106.836 35.0097C107.236 34.2142 107.436 33.3284 107.436 32.3521C107.436 31.3939 107.245 30.5352 106.863 29.7759C106.5 29.0166 105.972 28.42 105.282 27.9861C104.591 27.5341 103.781 27.3081 102.854 27.3081C101.872 27.3081 101.027 27.5341 100.318 27.9861C99.6266 28.438 99.0902 29.0527 98.7084 29.8301C98.3447 30.5894 98.1629 31.4572 98.1629 32.4335C98.1629 33.3736 98.3447 34.2323 98.7084 35.0097C99.072 35.769 99.5993 36.3747 100.29 36.8266C100.981 37.2786 101.818 37.5046 102.8 37.5046Z" fill="url(#paint8_radial_3845_9773)"/>
<path d="M102.145 39.6469C100.799 39.6469 99.6357 39.3306 98.6538 38.6978C97.6719 38.047 96.9174 37.1701 96.39 36.0673C95.8627 34.9645 95.5991 33.7442 95.5991 32.4063C95.5991 31.0504 95.89 29.8301 96.4719 28.7454C97.0537 27.6426 97.8901 26.7748 98.9811 26.142C100.072 25.4912 101.381 25.1658 102.909 25.1658C104.381 25.1658 105.645 25.4821 106.7 26.1149C107.754 26.7477 108.564 27.6064 109.127 28.6911C109.709 29.7759 110 30.9872 110 32.325V39.3215H107.463V36.5012H107.409C107.136 37.0255 106.763 37.5317 106.291 38.0198C105.836 38.4899 105.263 38.8786 104.572 39.1859C103.881 39.4933 103.072 39.6469 102.145 39.6469ZM102.8 37.5046C103.709 37.5046 104.509 37.2876 105.2 36.8537C105.909 36.4018 106.454 35.7871 106.836 35.0097C107.236 34.2142 107.436 33.3284 107.436 32.3521C107.436 31.3939 107.245 30.5352 106.863 29.7759C106.5 29.0166 105.972 28.42 105.282 27.9861C104.591 27.5341 103.781 27.3081 102.854 27.3081C101.872 27.3081 101.027 27.5341 100.318 27.9861C99.6266 28.438 99.0902 29.0527 98.7084 29.8301C98.3447 30.5894 98.1629 31.4572 98.1629 32.4335C98.1629 33.3736 98.3447 34.2323 98.7084 35.0097C99.072 35.769 99.5993 36.3747 100.29 36.8266C100.981 37.2786 101.818 37.5046 102.8 37.5046Z" fill="url(#paint9_linear_3845_9773)"/>
<path d="M7.74309 16.5936H18.2852C18.3107 23.5366 18.2247 35.0847 18.2247 35.2665C18.2247 35.4937 18.1483 36.5541 18.683 37.0843C19.1108 37.5084 20.23 37.4438 20.5356 37.4438H27.4108V39.9872H12.1324C10.681 39.9872 9.06302 40.2116 8.11415 38.7791C7.37266 37.6597 7.65076 35.2978 7.6253 34.7171L7.74309 16.5936Z" fill="url(#paint10_radial_3845_9773)"/>
<path d="M7.74309 16.5936H18.2852C18.3107 23.5366 18.2247 35.0847 18.2247 35.2665C18.2247 35.4937 18.1483 36.5541 18.683 37.0843C19.1108 37.5084 20.23 37.4438 20.5356 37.4438H27.4108V39.9872H12.1324C10.681 39.9872 9.06302 40.2116 8.11415 38.7791C7.37266 37.6597 7.65076 35.2978 7.6253 34.7171L7.74309 16.5936Z" fill="url(#paint11_linear_3845_9773)"/>
<path d="M6.87503 15.492C6.87503 14.8455 7.40358 14.3215 8.05559 14.3215H17.9167C18.5688 14.3215 19.0973 14.8455 19.0973 15.492C19.0973 16.1384 18.5688 16.6625 17.9167 16.6625H8.05559C7.40358 16.6625 6.87503 16.1384 6.87503 15.492Z" fill="url(#paint12_radial_3845_9773)"/>
<path d="M6.87503 15.492C6.87503 14.8455 7.40358 14.3215 8.05559 14.3215H17.9167C18.5688 14.3215 19.0973 14.8455 19.0973 15.492C19.0973 16.1384 18.5688 16.6625 17.9167 16.6625H8.05559C7.40358 16.6625 6.87503 16.1384 6.87503 15.492Z" fill="url(#paint13_linear_3845_9773)"/>
<path d="M8.12504 13.9772C8.12504 13.597 8.43595 13.2887 8.81948 13.2887H17.2223C17.6058 13.2887 17.9167 13.597 17.9167 13.9772V14.3215H8.12504V13.9772Z" fill="url(#paint14_radial_3845_9773)"/>
<path d="M8.12504 13.9772C8.12504 13.597 8.43595 13.2887 8.81948 13.2887H17.2223C17.6058 13.2887 17.9167 13.597 17.9167 13.9772V14.3215H8.12504V13.9772Z" fill="url(#paint15_linear_3845_9773)"/>
<path d="M9.02782 6.67877H10.5556V13.2887H9.02782V6.67877Z" fill="url(#paint16_radial_3845_9773)"/>
<path d="M9.02782 6.67877H10.5556V13.2887H9.02782V6.67877Z" fill="url(#paint17_linear_3845_9773)"/>
<path d="M15.4862 6.67877H16.9445V13.2887H15.4862V6.67877Z" fill="url(#paint18_radial_3845_9773)"/>
<path d="M15.4862 6.67877H16.9445V13.2887H15.4862V6.67877Z" fill="url(#paint19_linear_3845_9773)"/>
<path d="M17.9168 9.01977L26.1112 7.22959V5.99023L17.9168 7.78041V9.01977Z" fill="url(#paint20_radial_3845_9773)"/>
<path d="M17.9168 9.01977L26.1112 7.22959V5.99023L17.9168 7.78041V9.01977Z" fill="url(#paint21_linear_3845_9773)"/>
<path d="M3.64252e-07 6.67876L8.0556 8.46895V9.70831L3.64252e-07 7.91812V6.67876Z" fill="url(#paint22_radial_3845_9773)"/>
<path d="M3.64252e-07 6.67876L8.0556 8.46895V9.70831L3.64252e-07 7.91812V6.67876Z" fill="url(#paint23_linear_3845_9773)"/>
<path d="M26.1112 13.9772L17.9168 12.187V10.9477L26.1112 12.7379V13.9772Z" fill="url(#paint24_radial_3845_9773)"/>
<path d="M26.1112 13.9772L17.9168 12.187V10.9477L26.1112 12.7379V13.9772Z" fill="url(#paint25_linear_3845_9773)"/>
<path d="M8.0556 11.2919L0 13.0821V14.3215L8.0556 12.5313V11.2919Z" fill="url(#paint26_radial_3845_9773)"/>
<path d="M8.0556 11.2919L0 13.0821V14.3215L8.0556 12.5313V11.2919Z" fill="url(#paint27_linear_3845_9773)"/>
<path d="M13.889 0.929519C13.889 1.44288 13.4848 1.85904 12.9862 1.85904C12.4876 1.85904 12.0834 1.44288 12.0834 0.929519C12.0834 0.41616 12.4876 0 12.9862 0C13.4848 0 13.889 0.41616 13.889 0.929519Z" fill="url(#paint28_radial_3845_9773)"/>
<path d="M13.889 0.929519C13.889 1.44288 13.4848 1.85904 12.9862 1.85904C12.4876 1.85904 12.0834 1.44288 12.0834 0.929519C12.0834 0.41616 12.4876 0 12.9862 0C13.4848 0 13.889 0.41616 13.889 0.929519Z" fill="url(#paint29_linear_3845_9773)"/>
<path d="M13.889 9.98373C13.889 10.4781 13.4848 10.8788 12.9862 10.8788C12.4876 10.8788 12.0834 10.4781 12.0834 9.98373C12.0834 9.48938 12.4876 9.08863 12.9862 9.08863C13.4848 9.08863 13.889 9.48938 13.889 9.98373Z" fill="url(#paint30_radial_3845_9773)"/>
<path d="M13.889 9.98373C13.889 10.4781 13.4848 10.8788 12.9862 10.8788C12.4876 10.8788 12.0834 10.4781 12.0834 9.98373C12.0834 9.48938 12.4876 9.08863 12.9862 9.08863C13.4848 9.08863 13.889 9.48938 13.889 9.98373Z" fill="url(#paint31_linear_3845_9773)"/>
<path d="M18.1945 6.74762C18.1945 6.10564 18.0598 5.46995 17.7981 4.87684C17.5363 4.28373 17.1527 3.74482 16.669 3.29087C16.1854 2.83692 15.6112 2.47683 14.9793 2.23116C14.3474 1.98549 13.6701 1.85904 12.9862 1.85904C12.3022 1.85904 11.6249 1.98549 10.993 2.23116C10.3611 2.47683 9.78695 2.83692 9.30331 3.29087C8.81967 3.74482 8.43602 4.28373 8.17428 4.87684C7.91253 5.46995 7.77782 6.10564 7.77782 6.74762H18.1945Z" fill="url(#paint32_radial_3845_9773)"/>
<path d="M18.1945 6.74762C18.1945 6.10564 18.0598 5.46995 17.7981 4.87684C17.5363 4.28373 17.1527 3.74482 16.669 3.29087C16.1854 2.83692 15.6112 2.47683 14.9793 2.23116C14.3474 1.98549 13.6701 1.85904 12.9862 1.85904C12.3022 1.85904 11.6249 1.98549 10.993 2.23116C10.3611 2.47683 9.78695 2.83692 9.30331 3.29087C8.81967 3.74482 8.43602 4.28373 8.17428 4.87684C7.91253 5.46995 7.77782 6.10564 7.77782 6.74762H18.1945Z" fill="url(#paint33_linear_3845_9773)"/>
<defs>
<radialGradient id="paint0_radial_3845_9773" cx="0" cy="0" r="1" gradientUnits="userSpaceOnUse" gradientTransform="translate(12.8426 10.2778) rotate(26.8418) scale(108.889 36.1902)">
<stop stop-color="#FF9C2B"/>
<stop offset="1" stop-color="#D95126"/>
</radialGradient>
<linearGradient id="paint1_linear_3845_9773" x1="13.9594" y1="33.75" x2="12.1629" y2="-3.05645" gradientUnits="userSpaceOnUse">
<stop stop-color="#FF8800" stop-opacity="0"/>
<stop offset="0.647164" stop-color="#FF9C2B"/>
<stop offset="1" stop-color="#FF5F2D"/>
</linearGradient>
<radialGradient id="paint2_radial_3845_9773" cx="0" cy="0" r="1" gradientUnits="userSpaceOnUse" gradientTransform="translate(12.8426 10.2778) rotate(26.8418) scale(108.889 36.1902)">
<stop stop-color="#FF9C2B"/>
<stop offset="1" stop-color="#D95126"/>
</radialGradient>
<linearGradient id="paint3_linear_3845_9773" x1="13.9594" y1="33.75" x2="12.1629" y2="-3.05645" gradientUnits="userSpaceOnUse">
<stop stop-color="#FF8800" stop-opacity="0"/>
<stop offset="0.647164" stop-color="#FF9C2B"/>
<stop offset="1" stop-color="#FF5F2D"/>
</linearGradient>
<radialGradient id="paint4_radial_3845_9773" cx="0" cy="0" r="1" gradientUnits="userSpaceOnUse" gradientTransform="translate(12.8426 10.2778) rotate(26.8418) scale(108.889 36.1902)">
<stop stop-color="#FF9C2B"/>
<stop offset="1" stop-color="#D95126"/>
</radialGradient>
<linearGradient id="paint5_linear_3845_9773" x1="13.9594" y1="33.75" x2="12.1629" y2="-3.05645" gradientUnits="userSpaceOnUse">
<stop stop-color="#FF8800" stop-opacity="0"/>
<stop offset="0.647164" stop-color="#FF9C2B"/>
<stop offset="1" stop-color="#FF5F2D"/>
</linearGradient>
<radialGradient id="paint6_radial_3845_9773" cx="0" cy="0" r="1" gradientUnits="userSpaceOnUse" gradientTransform="translate(12.8426 10.2778) rotate(26.8418) scale(108.889 36.1902)">
<stop stop-color="#FF9C2B"/>
<stop offset="1" stop-color="#D95126"/>
</radialGradient>
<linearGradient id="paint7_linear_3845_9773" x1="13.9594" y1="33.75" x2="12.1629" y2="-3.05645" gradientUnits="userSpaceOnUse">
<stop stop-color="#FF8800" stop-opacity="0"/>
<stop offset="0.647164" stop-color="#FF9C2B"/>
<stop offset="1" stop-color="#FF5F2D"/>
</linearGradient>
<radialGradient id="paint8_radial_3845_9773" cx="0" cy="0" r="1" gradientUnits="userSpaceOnUse" gradientTransform="translate(12.8426 10.2778) rotate(26.8418) scale(108.889 36.1902)">
<stop stop-color="#FF9C2B"/>
<stop offset="1" stop-color="#D95126"/>
</radialGradient>
<linearGradient id="paint9_linear_3845_9773" x1="13.9594" y1="33.75" x2="12.1629" y2="-3.05645" gradientUnits="userSpaceOnUse">
<stop stop-color="#FF8800" stop-opacity="0"/>
<stop offset="0.647164" stop-color="#FF9C2B"/>
<stop offset="1" stop-color="#FF5F2D"/>
</linearGradient>
<radialGradient id="paint10_radial_3845_9773" cx="0" cy="0" r="1" gradientUnits="userSpaceOnUse" gradientTransform="translate(12.8426 10.2778) rotate(26.8418) scale(108.889 36.1902)">
<stop stop-color="#FF9C2B"/>
<stop offset="1" stop-color="#D95126"/>
</radialGradient>
<linearGradient id="paint11_linear_3845_9773" x1="13.9594" y1="33.75" x2="12.1629" y2="-3.05645" gradientUnits="userSpaceOnUse">
<stop stop-color="#FF8800" stop-opacity="0"/>
<stop offset="0.647164" stop-color="#FF9C2B"/>
<stop offset="1" stop-color="#FF5F2D"/>
</linearGradient>
<radialGradient id="paint12_radial_3845_9773" cx="0" cy="0" r="1" gradientUnits="userSpaceOnUse" gradientTransform="translate(12.8426 10.2778) rotate(26.8418) scale(108.889 36.1902)">
<stop stop-color="#FF9C2B"/>
<stop offset="1" stop-color="#D95126"/>
</radialGradient>
<linearGradient id="paint13_linear_3845_9773" x1="13.9594" y1="33.75" x2="12.1629" y2="-3.05645" gradientUnits="userSpaceOnUse">
<stop stop-color="#FF8800" stop-opacity="0"/>
<stop offset="0.647164" stop-color="#FF9C2B"/>
<stop offset="1" stop-color="#FF5F2D"/>
</linearGradient>
<radialGradient id="paint14_radial_3845_9773" cx="0" cy="0" r="1" gradientUnits="userSpaceOnUse" gradientTransform="translate(12.8426 10.2778) rotate(26.8418) scale(108.889 36.1902)">
<stop stop-color="#FF9C2B"/>
<stop offset="1" stop-color="#D95126"/>
</radialGradient>
<linearGradient id="paint15_linear_3845_9773" x1="13.9594" y1="33.75" x2="12.1629" y2="-3.05645" gradientUnits="userSpaceOnUse">
<stop stop-color="#FF8800" stop-opacity="0"/>
<stop offset="0.647164" stop-color="#FF9C2B"/>
<stop offset="1" stop-color="#FF5F2D"/>
</linearGradient>
<radialGradient id="paint16_radial_3845_9773" cx="0" cy="0" r="1" gradientUnits="userSpaceOnUse" gradientTransform="translate(12.8426 10.2778) rotate(26.8418) scale(108.889 36.1902)">
<stop stop-color="#FF9C2B"/>
<stop offset="1" stop-color="#D95126"/>
</radialGradient>
<linearGradient id="paint17_linear_3845_9773" x1="13.9594" y1="33.75" x2="12.1629" y2="-3.05645" gradientUnits="userSpaceOnUse">
<stop stop-color="#FF8800" stop-opacity="0"/>
<stop offset="0.647164" stop-color="#FF9C2B"/>
<stop offset="1" stop-color="#FF5F2D"/>
</linearGradient>
<radialGradient id="paint18_radial_3845_9773" cx="0" cy="0" r="1" gradientUnits="userSpaceOnUse" gradientTransform="translate(12.8426 10.2778) rotate(26.8418) scale(108.889 36.1902)">
<stop stop-color="#FF9C2B"/>
<stop offset="1" stop-color="#D95126"/>
</radialGradient>
<linearGradient id="paint19_linear_3845_9773" x1="13.9594" y1="33.75" x2="12.1629" y2="-3.05645" gradientUnits="userSpaceOnUse">
<stop stop-color="#FF8800" stop-opacity="0"/>
<stop offset="0.647164" stop-color="#FF9C2B"/>
<stop offset="1" stop-color="#FF5F2D"/>
</linearGradient>
<radialGradient id="paint20_radial_3845_9773" cx="0" cy="0" r="1" gradientUnits="userSpaceOnUse" gradientTransform="translate(12.8426 10.2778) rotate(26.8418) scale(108.889 36.1902)">
<stop stop-color="#FF9C2B"/>
<stop offset="1" stop-color="#D95126"/>
</radialGradient>
<linearGradient id="paint21_linear_3845_9773" x1="13.9594" y1="33.75" x2="12.1629" y2="-3.05645" gradientUnits="userSpaceOnUse">
<stop stop-color="#FF8800" stop-opacity="0"/>
<stop offset="0.647164" stop-color="#FF9C2B"/>
<stop offset="1" stop-color="#FF5F2D"/>
</linearGradient>
<radialGradient id="paint22_radial_3845_9773" cx="0" cy="0" r="1" gradientUnits="userSpaceOnUse" gradientTransform="translate(12.8426 10.2778) rotate(26.8418) scale(108.889 36.1902)">
<stop stop-color="#FF9C2B"/>
<stop offset="1" stop-color="#D95126"/>
</radialGradient>
<linearGradient id="paint23_linear_3845_9773" x1="13.9594" y1="33.75" x2="12.1629" y2="-3.05645" gradientUnits="userSpaceOnUse">
<stop stop-color="#FF8800" stop-opacity="0"/>
<stop offset="0.647164" stop-color="#FF9C2B"/>
<stop offset="1" stop-color="#FF5F2D"/>
</linearGradient>
<radialGradient id="paint24_radial_3845_9773" cx="0" cy="0" r="1" gradientUnits="userSpaceOnUse" gradientTransform="translate(12.8426 10.2778) rotate(26.8418) scale(108.889 36.1902)">
<stop stop-color="#FF9C2B"/>
<stop offset="1" stop-color="#D95126"/>
</radialGradient>
<linearGradient id="paint25_linear_3845_9773" x1="13.9594" y1="33.75" x2="12.1629" y2="-3.05645" gradientUnits="userSpaceOnUse">
<stop stop-color="#FF8800" stop-opacity="0"/>
<stop offset="0.647164" stop-color="#FF9C2B"/>
<stop offset="1" stop-color="#FF5F2D"/>
</linearGradient>
<radialGradient id="paint26_radial_3845_9773" cx="0" cy="0" r="1" gradientUnits="userSpaceOnUse" gradientTransform="translate(12.8426 10.2778) rotate(26.8418) scale(108.889 36.1902)">
<stop stop-color="#FF9C2B"/>
<stop offset="1" stop-color="#D95126"/>
</radialGradient>
<linearGradient id="paint27_linear_3845_9773" x1="13.9594" y1="33.75" x2="12.1629" y2="-3.05645" gradientUnits="userSpaceOnUse">
<stop stop-color="#FF8800" stop-opacity="0"/>
<stop offset="0.647164" stop-color="#FF9C2B"/>
<stop offset="1" stop-color="#FF5F2D"/>
</linearGradient>
<radialGradient id="paint28_radial_3845_9773" cx="0" cy="0" r="1" gradientUnits="userSpaceOnUse" gradientTransform="translate(12.8426 10.2778) rotate(26.8418) scale(108.889 36.1902)">
<stop stop-color="#FF9C2B"/>
<stop offset="1" stop-color="#D95126"/>
</radialGradient>
<linearGradient id="paint29_linear_3845_9773" x1="13.9594" y1="33.75" x2="12.1629" y2="-3.05645" gradientUnits="userSpaceOnUse">
<stop stop-color="#FF8800" stop-opacity="0"/>
<stop offset="0.647164" stop-color="#FF9C2B"/>
<stop offset="1" stop-color="#FF5F2D"/>
</linearGradient>
<radialGradient id="paint30_radial_3845_9773" cx="0" cy="0" r="1" gradientUnits="userSpaceOnUse" gradientTransform="translate(12.8426 10.2778) rotate(26.8418) scale(108.889 36.1902)">
<stop stop-color="#FF9C2B"/>
<stop offset="1" stop-color="#D95126"/>
</radialGradient>
<linearGradient id="paint31_linear_3845_9773" x1="13.9594" y1="33.75" x2="12.1629" y2="-3.05645" gradientUnits="userSpaceOnUse">
<stop stop-color="#FF8800" stop-opacity="0"/>
<stop offset="0.647164" stop-color="#FF9C2B"/>
<stop offset="1" stop-color="#FF5F2D"/>
</linearGradient>
<radialGradient id="paint32_radial_3845_9773" cx="0" cy="0" r="1" gradientUnits="userSpaceOnUse" gradientTransform="translate(12.8426 10.2778) rotate(26.8418) scale(108.889 36.1902)">
<stop stop-color="#FF9C2B"/>
<stop offset="1" stop-color="#D95126"/>
</radialGradient>
<linearGradient id="paint33_linear_3845_9773" x1="13.9594" y1="33.75" x2="12.1629" y2="-3.05645" gradientUnits="userSpaceOnUse">
<stop stop-color="#FF8800" stop-opacity="0"/>
<stop offset="0.647164" stop-color="#FF9C2B"/>
<stop offset="1" stop-color="#FF5F2D"/>
</linearGradient>
</defs>
</svg>
