<svg width="102" height="24" viewBox="0 0 102 24" fill="none" xmlns="http://www.w3.org/2000/svg">
<path d="M0.548 23V3.4H4.748V19.22H13.624V23H0.548Z" fill="#FF5F2D"/>
<path d="M22.0645 23.28C20.9818 23.28 20.0485 23.0467 19.2645 22.58C18.4991 22.0947 17.9018 21.4133 17.4725 20.536C17.0618 19.64 16.8565 18.5667 16.8565 17.316V8.188H20.8325V16.672C20.8325 17.344 20.9445 17.932 21.1685 18.436C21.3925 18.9213 21.7098 19.2947 22.1205 19.556C22.5311 19.8173 23.0351 19.948 23.6325 19.948C24.0618 19.948 24.4631 19.8827 24.8365 19.752C25.2098 19.6027 25.5271 19.3973 25.7885 19.136C26.0498 18.8747 26.2551 18.5667 26.4045 18.212C26.5538 17.8573 26.6285 17.4747 26.6285 17.064V8.188H30.6045V23H26.8245L26.6845 19.948L27.4125 19.612C27.1885 20.3027 26.8151 20.928 26.2925 21.488C25.7698 22.048 25.1445 22.4867 24.4165 22.804C23.6885 23.1213 22.9045 23.28 22.0645 23.28ZM34.5772 23V8.188H38.4132L38.4972 11.016L37.9092 11.128C38.1145 10.6427 38.3852 10.204 38.7212 9.812C39.0572 9.42 39.4492 9.084 39.8972 8.804C40.3639 8.524 40.8492 8.30933 41.3532 8.16C41.8572 7.992 42.3612 7.908 42.8652 7.908C43.6305 7.908 44.3212 8.02933 44.9372 8.272C45.5532 8.51467 46.0759 8.89733 46.5052 9.42C46.9345 9.924 47.2705 10.596 47.5132 11.436L46.8972 11.38L47.0932 10.932C47.3359 10.484 47.6439 10.0827 48.0172 9.728C48.3905 9.35467 48.8105 9.03733 49.2772 8.776C49.7439 8.496 50.2292 8.28133 50.7332 8.132C51.2372 7.98267 51.7319 7.908 52.2172 7.908C53.3745 7.908 54.3359 8.14133 55.1012 8.608C55.8665 9.056 56.4359 9.73733 56.8092 10.652C57.2012 11.5667 57.3972 12.6867 57.3972 14.012V23H53.4212V14.292C53.4212 13.62 53.3279 13.0693 53.1412 12.64C52.9545 12.2107 52.6839 11.8933 52.3292 11.688C51.9745 11.464 51.5172 11.352 50.9572 11.352C50.5279 11.352 50.1265 11.4267 49.7532 11.576C49.3985 11.7067 49.0812 11.9027 48.8012 12.164C48.5399 12.4067 48.3345 12.696 48.1852 13.032C48.0359 13.368 47.9612 13.7413 47.9612 14.152V23H43.9852V14.264C43.9852 13.648 43.8825 13.1253 43.6772 12.696C43.4905 12.248 43.2199 11.912 42.8652 11.688C42.5105 11.464 42.0719 11.352 41.5492 11.352C41.1199 11.352 40.7185 11.4267 40.3452 11.576C39.9905 11.7067 39.6825 11.9027 39.4212 12.164C39.1599 12.4067 38.9452 12.696 38.7772 13.032C38.6279 13.368 38.5532 13.732 38.5532 14.124V23H34.5772ZM61.5193 23V8.188H65.4953V23H61.5193ZM63.4793 5.136C62.714 5.136 62.1166 4.94933 61.6873 4.576C61.258 4.20267 61.0433 3.67067 61.0433 2.98C61.0433 2.34533 61.258 1.832 61.6873 1.44C62.1353 1.02933 62.7326 0.823998 63.4793 0.823998C64.2446 0.823998 64.842 1.02 65.2713 1.412C65.7006 1.78533 65.9153 2.308 65.9153 2.98C65.9153 3.63333 65.6913 4.156 65.2433 4.548C64.814 4.94 64.226 5.136 63.4793 5.136ZM69.7419 23V8.188H73.5499L73.6619 11.212L72.8779 11.548C73.0832 10.876 73.4472 10.2693 73.9699 9.728C74.5112 9.168 75.1552 8.72 75.9019 8.384C76.6486 8.048 77.4326 7.88 78.2539 7.88C79.3739 7.88 80.3072 8.104 81.0539 8.552C81.8192 9 82.3886 9.68133 82.7619 10.596C83.1539 11.492 83.3499 12.6027 83.3499 13.928V23H79.3739V14.236C79.3739 13.564 79.2806 13.004 79.0939 12.556C78.9072 12.108 78.6179 11.7813 78.2259 11.576C77.8526 11.352 77.3859 11.2587 76.8259 11.296C76.3779 11.296 75.9579 11.3707 75.5659 11.52C75.1926 11.6507 74.8659 11.8467 74.5859 12.108C74.3246 12.3693 74.1099 12.668 73.9419 13.004C73.7926 13.34 73.7179 13.704 73.7179 14.096V23H71.7579C71.3286 23 70.9459 23 70.6099 23C70.2739 23 69.9846 23 69.7419 23ZM92.7039 23.28C91.4719 23.28 90.3612 22.944 89.3719 22.272C88.3825 21.6 87.5985 20.6853 87.0199 19.528C86.4412 18.3707 86.1519 17.0453 86.1519 15.552C86.1519 14.0587 86.4412 12.7427 87.0199 11.604C87.6172 10.4467 88.4199 9.54133 89.4279 8.888C90.4359 8.216 91.5839 7.88 92.8719 7.88C93.5999 7.88 94.2625 7.992 94.8599 8.216C95.4759 8.42133 96.0079 8.71067 96.4559 9.084C96.9225 9.45733 97.3145 9.88667 97.6319 10.372C97.9492 10.8573 98.1732 11.38 98.3039 11.94L97.4639 11.8V8.188H101.412V23H97.4079V19.444L98.3039 19.36C98.1545 19.8827 97.9119 20.3773 97.5759 20.844C97.2399 21.3107 96.8199 21.7307 96.3159 22.104C95.8305 22.4587 95.2799 22.748 94.6639 22.972C94.0479 23.1773 93.3945 23.28 92.7039 23.28ZM93.7959 19.836C94.5425 19.836 95.1959 19.6587 95.7559 19.304C96.3159 18.9493 96.7452 18.4547 97.0439 17.82C97.3612 17.1667 97.5199 16.4107 97.5199 15.552C97.5199 14.712 97.3612 13.9747 97.0439 13.34C96.7452 12.7053 96.3159 12.2107 95.7559 11.856C95.1959 11.4827 94.5425 11.296 93.7959 11.296C93.0679 11.296 92.4239 11.4827 91.8639 11.856C91.3225 12.2107 90.8932 12.7053 90.5759 13.34C90.2585 13.9747 90.0999 14.712 90.0999 15.552C90.0999 16.4107 90.2585 17.1667 90.5759 17.82C90.8932 18.4547 91.3225 18.9493 91.8639 19.304C92.4239 19.6587 93.0679 19.836 93.7959 19.836Z" fill="white"/>
</svg>
