<svg width="32" height="32" viewBox="0 0 32 32" fill="none" xmlns="http://www.w3.org/2000/svg">
<path fill-rule="evenodd" clip-rule="evenodd" d="M11.7018 3.00581C12.1539 2.95687 12.5821 3.21909 12.7439 3.64401L13.3566 5.25224C13.4658 5.53884 13.5204 5.68214 13.6376 5.75338C13.7549 5.82462 13.9124 5.80645 14.2276 5.77011C14.8226 5.7015 15.4099 5.66667 15.9999 5.66667C16.5899 5.66667 17.1773 5.7015 17.7722 5.77011C18.0874 5.80645 18.245 5.82462 18.3622 5.75338C18.4795 5.68214 18.534 5.53884 18.6432 5.25224L19.2559 3.64401C19.4177 3.21909 19.8459 2.95687 20.298 3.00581C22.6005 3.25505 24.9185 3.77387 27.2309 5.43841C27.3994 5.55972 27.526 5.73048 27.593 5.92699C29.0641 10.2372 29.869 13.9989 30.1802 17.0226C30.4874 20.0081 30.3256 22.387 29.7552 23.8609C29.7454 23.8862 29.7346 23.9111 29.7227 23.9356C29.2028 25.0101 28.4176 26.235 27.4434 27.2075C26.4861 28.1632 25.2175 29 23.7438 29C23.373 29 23.0539 28.8332 22.8818 28.7336C22.6698 28.6108 22.4525 28.4504 22.244 28.2773C21.824 27.9287 21.3619 27.4639 20.9336 26.9605C20.5054 26.4573 20.0881 25.8886 19.7719 25.3257C19.6605 25.1275 19.6049 25.0284 19.6091 24.9158C19.6126 24.8218 19.6582 24.7164 19.7242 24.6496C19.8034 24.5694 19.9267 24.5389 20.1734 24.4779L20.1734 24.4779L20.1735 24.4779C21.1709 24.2312 22.5075 23.8659 23.0224 23.6012C23.5385 23.4046 23.7976 22.8268 23.6009 22.3107C23.4043 21.7946 22.8266 21.5356 22.3105 21.7322C17.8731 23.4226 14.1265 23.4226 9.68911 21.7322C9.17301 21.5356 8.59524 21.7946 8.39863 22.3107C8.20202 22.8268 8.46102 23.4046 8.97712 23.6012C9.94783 23.971 10.8933 24.2674 11.8235 24.4906C12.0615 24.5477 12.1805 24.5762 12.2572 24.6474C12.3348 24.7193 12.3854 24.8349 12.3854 24.9407C12.3854 25.0454 12.3329 25.1388 12.228 25.3257C11.9118 25.8886 11.4944 26.4573 11.0663 26.9605C10.6379 27.4639 10.1759 27.9287 9.75583 28.2773C9.54729 28.4504 9.33 28.6108 9.11797 28.7336C8.94594 28.8332 8.6268 29 8.25599 29C6.78232 29 5.51373 28.1632 4.55639 27.2075C3.58224 26.235 2.79704 25.0101 2.27707 23.9356C2.26524 23.9111 2.25441 23.8862 2.2446 23.8609C1.67426 22.387 1.51238 20.0081 1.81961 17.0226C2.13078 13.9989 2.93567 10.2372 4.40678 5.92699C4.47385 5.73048 4.60043 5.55972 4.76895 5.43841C7.08128 3.77387 9.39935 3.25505 11.7018 3.00581ZM7.33317 14C7.33317 12.5304 8.51942 11.3333 9.98979 11.3333H10.0099C11.4803 11.3333 12.6665 12.5304 12.6665 14C12.6665 15.4696 11.4803 16.6666 10.0099 16.6666H9.98979C8.51942 16.6666 7.33317 15.4696 7.33317 14ZM19.3332 14C19.3332 12.5304 20.5194 11.3333 21.9898 11.3333H22.0099C23.4803 11.3333 24.6665 12.5304 24.6665 14C24.6665 15.4696 23.4803 16.6666 22.0099 16.6666H21.9898C20.5194 16.6666 19.3332 15.4696 19.3332 14Z" fill="#B3B3B5"/>
</svg>
