<svg width="32" height="32" viewBox="0 0 32 32" fill="none" xmlns="http://www.w3.org/2000/svg">
<path fill-rule="evenodd" clip-rule="evenodd" d="M6.49964 28.4847C4.46911 27.499 2.84953 25.7024 1.66797 23.2435L4.07153 22.0885C5.06365 24.1531 6.30678 25.4268 7.66419 26.0858C9.01254 26.7403 10.6269 26.863 12.5151 26.342L13.2244 28.9126C10.8381 29.571 8.53922 29.4748 6.49964 28.4847Z" fill="#B3B3B5"/>
<path d="M8.5256 1.66663H8.52705L8.52876 1.66663L8.53297 1.66665L8.54448 1.66674L8.57961 1.66733C8.60831 1.66796 8.64746 1.66914 8.69622 1.67137C8.79368 1.67582 8.92989 1.68445 9.09796 1.70118C9.43338 1.73456 9.89986 1.80062 10.4411 1.93188C11.401 2.16471 12.631 2.61126 13.7788 3.47504C14.7777 3.23932 16.1925 2.96419 18.0013 2.96415C19.8101 2.96412 21.2249 3.23934 22.2238 3.47507C23.3716 2.61128 24.6016 2.16472 25.5615 1.93189C26.1027 1.80062 26.5692 1.73456 26.9046 1.70118C27.0727 1.68445 27.2089 1.67582 27.3064 1.67137C27.3551 1.66914 27.3943 1.66796 27.423 1.66733L27.4581 1.66674L27.4696 1.66665L27.4738 1.66663L27.4756 1.66663C27.4756 1.66663 27.477 1.66663 27.477 2.66663V1.66663H28.1606L28.4088 2.30357C28.7545 3.19076 28.8794 4.27001 28.8812 5.28229C28.8826 6.1345 28.7967 6.99794 28.6466 7.75106C29.0526 8.39329 29.4317 9.15448 29.7261 9.93587C30.0772 10.8676 30.3346 11.8987 30.3346 12.8381C30.3346 16.0676 29.2526 18.3484 27.5412 19.9575C26.2412 21.1798 24.6277 21.9669 22.9958 22.5259C23.3454 23.0523 23.668 23.7479 23.668 24.66V30.3333H12.3346V24.66C12.3346 23.7479 12.6572 23.0523 13.0068 22.5259C11.3749 21.9669 9.76141 21.1798 8.46139 19.9575C6.75 18.3484 5.66797 16.0676 5.66797 12.8381C5.66797 11.8987 5.92543 10.8676 6.27648 9.93587C6.5709 9.15448 6.95001 8.39328 7.35598 7.75106C7.20591 6.99793 7.11996 6.1345 7.12143 5.28229C7.12317 4.27001 7.24815 3.19076 7.59383 2.30357L7.84201 1.66663H8.5256Z" fill="#B3B3B5"/>
</svg>
